<svg id="svg" xmlns="http://www.w3.org/2000/svg" xmlns:xlink="http://www.w3.org/1999/xlink" viewBox="0, 0, 400,346.18666666666667"><g id="svgg"><path id="path0" d="M82.347 0.022 C 82.347 0.034,82.509 0.145,82.707 0.270 C 93.767 7.213,101.313 17.379,103.490 28.267 C 104.183 31.733,104.213 32.411,104.213 44.787 L 104.213 54.827 52.107 54.827 C 23.448 54.827,0.002 54.845,0.004 54.867 C 0.006 54.889,0.387 55.155,0.851 55.459 C 13.737 63.903,21.015 75.367,21.759 88.393 C 21.834 89.706,21.834 256.519,21.759 257.787 C 20.982 270.905,13.771 282.227,0.732 290.800 C 0.331 291.064,0.002 291.299,0.001 291.321 C -0.001 291.394,70.221 291.336,71.387 291.263 C 75.196 291.023,77.331 290.771,79.813 290.267 C 91.839 287.829,97.694 280.731,98.062 268.147 L 98.097 266.933 81.507 266.933 L 64.917 266.933 64.800 266.547 C 63.912 263.627,63.387 260.420,63.256 257.120 C 63.220 256.235,63.201 242.738,63.201 218.467 L 63.200 181.173 196.373 181.173 C 269.619 181.173,329.545 181.155,329.543 181.133 C 329.540 181.111,326.006 175.621,321.689 168.933 L 313.839 156.773 304.813 156.760 L 295.787 156.746 295.787 118.000 L 295.787 79.253 324.853 79.253 L 353.920 79.253 353.920 93.726 L 353.920 108.199 365.720 117.897 C 372.210 123.230,377.645 127.727,377.797 127.890 C 377.977 128.082,378.123 128.190,378.211 128.196 L 378.347 128.207 378.347 107.530 C 378.347 85.219,378.330 86.655,378.616 84.720 C 380.289 73.421,387.569 63.047,399.149 55.459 C 399.613 55.155,399.994 54.889,399.996 54.867 C 399.998 54.845,376.552 54.827,347.893 54.827 L 295.787 54.827 295.787 44.787 C 295.787 32.411,295.817 31.733,296.510 28.267 C 298.689 17.370,306.223 7.225,317.307 0.261 L 317.680 0.027 296.387 0.013 C 284.675 0.006,265.514 0.006,253.806 0.013 L 232.519 0.027 233.393 0.607 C 245.824 8.868,252.944 19.527,254.184 31.733 C 254.401 33.878,254.399 33.263,254.400 95.933 L 254.400 156.747 200.000 156.747 L 145.600 156.747 145.600 120.451 L 145.600 84.156 144.707 84.184 C 144.215 84.200,143.237 84.225,142.533 84.241 C 119.908 84.749,106.152 93.831,104.404 109.413 C 104.219 111.056,104.214 111.799,104.214 134.307 L 104.213 156.747 83.707 156.747 L 63.200 156.747 63.201 123.560 C 63.201 90.291,63.209 88.830,63.389 86.880 C 63.603 84.578,64.145 81.772,64.778 79.697 L 64.913 79.254 146.470 79.237 C 221.258 79.222,228.089 79.214,228.773 79.135 C 238.815 77.972,244.250 71.600,246.396 58.475 C 246.528 57.669,246.880 55.052,246.880 54.878 C 246.880 54.845,228.720 54.827,196.240 54.827 L 145.600 54.827 145.600 44.973 C 145.601 33.434,145.626 32.608,146.058 29.813 C 147.817 18.451,154.854 8.418,166.480 0.695 C 166.979 0.364,167.409 0.072,167.437 0.047 C 167.466 0.020,149.193 0.000,124.917 0.000 C 101.503 0.000,82.347 0.010,82.347 0.022 M142.160 186.862 C 117.968 187.804,105.262 196.116,104.268 211.652 C 104.231 212.223,104.213 228.849,104.213 261.972 C 104.213 311.800,104.211 312.415,104.023 314.293 C 102.786 326.666,95.609 337.405,83.041 345.686 L 82.321 346.160 103.614 346.173 C 115.325 346.181,134.489 346.181,146.200 346.173 L 167.493 346.160 166.587 345.554 C 154.022 337.153,146.979 326.532,145.788 314.187 C 145.622 312.467,145.601 310.984,145.600 301.213 L 145.600 291.360 272.800 291.360 C 342.760 291.360,400.000 291.342,399.999 291.320 C 399.998 291.298,399.670 291.064,399.269 290.800 C 387.439 283.011,380.316 272.842,378.589 261.280 C 378.334 259.576,378.347 260.716,378.347 238.620 C 378.347 220.214,378.338 217.914,378.267 217.973 C 378.202 218.027,378.187 218.026,378.187 217.968 C 378.187 217.928,378.018 218.064,377.812 218.268 C 377.606 218.473,372.152 222.985,365.692 228.296 L 353.947 237.953 353.933 252.443 L 353.920 266.933 324.853 266.933 L 295.787 266.933 295.787 227.840 L 295.787 188.747 294.813 188.747 C 280.114 188.750,268.436 192.651,261.956 199.725 C 257.498 204.591,255.334 210.031,254.497 218.480 C 254.449 218.961,254.429 225.056,254.416 243.027 L 254.398 266.933 199.999 266.933 L 145.600 266.933 145.600 226.880 L 145.600 186.827 144.067 186.837 C 143.223 186.843,142.365 186.854,142.160 186.862 M293.493 298.169 C 275.197 298.567,261.635 304.341,255.681 314.267 C 254.501 316.234,253.823 317.833,253.091 320.373 C 250.184 330.465,243.850 338.575,233.440 345.536 L 232.507 346.160 253.800 346.173 C 265.511 346.181,284.675 346.181,296.386 346.173 L 317.679 346.160 316.959 345.686 C 304.969 337.785,297.762 327.459,296.166 315.893 C 295.819 313.376,295.787 312.440,295.787 304.787 L 295.787 298.133 294.947 298.145 C 294.485 298.151,293.831 298.162,293.493 298.169 " stroke="none" fill="#000000" fill-rule="evenodd"></path></g></svg>